# Blender v2.92.0 OBJ File: ''
# www.blender.org
mtllib sword_cute.mtl
o sword_cute
v 9.828125 50.500000 -1.084953
v -0.011482 46.125000 -3.964836
v -0.011482 80.875000 -4.472642
v 10.976563 86.687500 -1.054674
v -9.851563 50.500000 -1.084953
v -11.000000 86.687500 -1.054674
v -0.011482 109.437500 -0.920392
v 6.382813 -58.125000 -1.176767
v 7.531250 -21.921875 -1.146488
v 9.476563 -21.828125 -0.006542
v 8.312500 -58.156250 -0.006547
v -11.835938 50.812500 -0.006546
v -13.000000 87.125000 -0.006540
v -0.011482 113.937500 -0.006519
v 12.976563 87.125000 -0.006536
v -0.011482 80.875000 4.460951
v -0.011482 46.125000 3.951180
v 9.828125 50.500000 1.071297
v 10.976563 86.687500 1.041030
v -11.000000 86.687500 1.041030
v -9.851563 50.500000 1.071297
v -0.011482 109.437500 0.907245
v 9.476563 -21.828125 -0.006542
v 7.531250 -21.921875 1.132809
v 6.382813 -58.125000 1.164054
v 8.312500 -58.156250 -0.006547
v -13.000000 87.125000 -0.006540
v -11.835938 50.812500 -0.006546
v -0.011482 113.937500 -0.006519
v 12.976563 87.125000 -0.006536
v 27.859375 -59.968750 2.521474
v 27.859375 -59.968750 -2.521494
v 29.062500 -56.281250 -2.521493
v 29.062500 -56.281250 2.521475
v 24.734375 -62.250000 2.521474
v 24.734375 -62.250000 -2.521494
v 20.875000 -62.250000 2.521474
v 20.875000 -62.250000 -2.521494
v 17.750000 -52.625000 2.521475
v 17.750000 -52.625000 -2.521492
v 16.546875 -56.281250 -2.521493
v 16.546875 -56.281250 2.521475
v 20.875000 -50.343750 2.521476
v 20.875000 -50.343750 -2.521492
v 24.734375 -50.343750 2.521476
v 24.734375 -50.343750 -2.521492
v 27.859375 -52.625000 2.521475
v 27.859375 -52.625000 -2.521492
v 16.546875 -56.281250 -2.521493
v 17.750000 -52.625000 -2.521492
v 27.859375 -52.625000 -2.521492
v 29.062500 -56.281250 -2.521493
v 27.859375 -59.968750 2.521474
v 20.875000 -62.250000 2.521474
v 24.734375 -62.250000 2.521474
v 0.000000 -57.406250 3.982413
v 8.273438 -56.843750 3.251944
v 8.273438 -56.843750 -3.251962
v 0.000000 -57.406250 -3.982431
v 10.437500 -62.250000 -3.582041
v 8.273438 -56.843750 -3.251962
v 20.875000 -62.250000 -2.521494
v 10.437500 -62.250000 3.582021
v 16.546875 -56.281250 2.521475
v 8.273438 -56.843750 3.251944
v 10.437500 -62.250000 3.582021
v 10.437500 -62.250000 -3.582041
v 0.000000 -62.250000 4.640615
v 0.000000 -62.250000 -4.640635
v 27.859375 -52.625000 2.521475
v 17.750000 -52.625000 2.521475
v 24.734375 -50.343750 2.521476
v 20.875000 -50.343750 2.521476
v 29.062500 -56.281250 2.521475
v 20.875000 -50.343750 -2.521492
v 24.734375 -50.343750 -2.521492
v 27.859375 -59.968750 -2.521494
v 24.734375 -62.250000 -2.521494
v -27.859375 -59.968750 2.521474
v -29.062500 -56.281250 2.521475
v -29.062500 -56.281250 -2.521493
v -27.859375 -59.968750 -2.521494
v -24.734375 -62.250000 2.521474
v -24.734375 -62.250000 -2.521494
v -20.875000 -62.250000 2.521474
v -20.875000 -62.250000 -2.521494
v -17.750000 -52.625000 2.521475
v -16.546875 -56.281250 2.521475
v -16.546875 -56.281250 -2.521493
v -17.750000 -52.625000 -2.521492
v -20.875000 -50.343750 2.521476
v -20.875000 -50.343750 -2.521492
v -24.734375 -50.343750 2.521476
v -24.734375 -50.343750 -2.521492
v -27.859375 -52.625000 2.521475
v -27.859375 -52.625000 -2.521492
v -16.546875 -56.281250 -2.521493
v -29.062500 -56.281250 -2.521493
v -27.859375 -52.625000 -2.521492
v -17.750000 -52.625000 -2.521492
v -27.859375 -59.968750 2.521474
v -24.734375 -62.250000 2.521474
v -20.875000 -62.250000 2.521474
v -8.273438 -56.843750 -3.251962
v -8.273438 -56.843750 3.251944
v -8.273438 -56.843750 -3.251962
v -10.437500 -62.250000 -3.582041
v -20.875000 -62.250000 -2.521494
v -16.546875 -56.281250 2.521475
v -10.437500 -62.250000 3.582021
v -8.273438 -56.843750 3.251944
v -10.437500 -62.250000 -3.582041
v -10.437500 -62.250000 3.582021
v 0.000000 -62.250000 4.640615
v 0.000000 -62.250000 -4.640635
v -17.750000 -52.625000 2.521475
v -20.875000 -50.343750 2.521476
v -24.734375 -50.343750 2.521476
v -27.859375 -52.625000 2.521475
v -29.062500 -56.281250 2.521475
v -20.875000 -50.343750 -2.521492
v -24.734375 -50.343750 -2.521492
v -27.859375 -59.968750 -2.521494
v -24.734375 -62.250000 -2.521494
v -5.742188 -111.375000 3.261701
v -7.097656 -107.187500 3.263655
v -7.097656 -107.187500 -3.263690
v -5.742188 -111.375000 -3.263690
v -2.193359 -113.937500 3.263654
v -2.193359 -113.937500 -3.263691
v 2.193359 -113.937500 3.263654
v 2.193359 -113.937500 -3.263691
v 5.742188 -103.000000 3.263655
v 7.097656 -107.187500 3.263655
v 7.097656 -107.187500 -3.263690
v 5.742188 -103.000000 -3.263689
v 3.714844 -101.562500 -0.405046
v 2.193359 -100.437500 3.263656
v -2.193359 -100.437500 3.261703
v -3.714844 -101.562500 -0.405290
v -5.742188 -103.000000 3.261702
v -5.742188 -103.000000 -3.263689
v 2.193359 -100.437500 -3.263689
v 5.742188 -103.000000 -3.263689
v -5.742188 -103.000000 -3.263689
v -2.193359 -100.437500 -3.263689
v -2.193359 -113.937500 3.263654
v 2.193359 -113.937500 3.263654
v 5.742188 -111.375000 3.263654
v -5.742188 -111.375000 3.261701
v 5.742188 -111.375000 -3.263690
v 5.742188 -111.375000 3.263654
v -5.167969 -69.000000 -0.000022
v -2.583984 -69.000000 -4.476574
v -2.720703 -79.437500 -4.714857
v -5.441406 -79.437500 -0.000028
v 2.583984 -69.000000 -4.476574
v 2.720703 -79.437500 -4.714857
v 5.167969 -69.000000 -0.000015
v 5.441406 -79.437500 -0.000013
v 2.720703 -79.437500 4.714831
v 2.583984 -69.000000 4.476552
v -2.583984 -69.000000 4.476552
v 2.583984 -69.000000 4.476552
v -2.720703 -79.437500 4.714831
v 2.720703 -79.437500 4.714831
v -5.167969 -89.937500 -0.000034
v -2.583984 -89.937500 -4.476578
v -2.193359 -100.437500 -3.263689
v -3.714844 -101.562500 -0.405290
v -4.253906 -58.531250 -0.000021
v -2.126953 -58.531250 -3.685557
v 2.583984 -89.937500 -4.476578
v 2.193359 -100.437500 -3.263689
v 2.126953 -58.531250 -3.685557
v 5.167969 -89.937500 -0.000015
v 3.714844 -101.562500 -0.405046
v 4.253906 -58.531250 -0.000014
v 2.583984 -89.937500 4.476548
v 2.193359 -100.437500 3.263656
v 2.126953 -58.531250 3.685538
v -2.583984 -89.937500 4.476548
v 2.583984 -89.937500 4.476548
v -2.193359 -100.437500 3.261703
v 2.193359 -100.437500 3.263656
v 2.126953 -58.531250 3.685538
v -2.126953 -58.531250 3.685538
v 2.193359 -100.437500 -3.263689
v -2.193359 -100.437500 -3.263689
v 7.097656 -107.187500 -3.263690
v -7.097656 -107.187500 -3.263690
v 5.742188 -111.375000 -3.263690
v -5.742188 -111.375000 -3.263690
v 2.193359 -113.937500 -3.263691
v -2.193359 -113.937500 -3.263691
v -5.742188 -103.000000 3.261702
v 5.742188 -103.000000 3.263655
v 2.193359 -100.437500 3.263656
v -2.193359 -100.437500 3.261703
v -7.097656 -107.187500 3.263655
v 7.097656 -107.187500 3.263655
v -0.011482 -23.406250 -2.945317
v -0.011482 11.359376 -3.455076
v 8.679688 14.296875 -1.115232
v -7.554688 -21.921875 -1.146488
v -8.703125 14.296875 -1.115232
v 11.812500 50.812500 -0.006538
v 10.648438 14.500000 -0.006540
v -9.500000 -21.828125 -0.006550
v -10.671875 14.500000 -0.006548
v -0.011482 11.359374 3.441408
v -0.011482 -23.406250 2.931637
v 8.679688 14.296875 1.102541
v -7.554688 -21.921875 1.132809
v -8.703125 14.296875 1.102541
v 10.648438 14.500000 -0.006540
v 11.812500 50.812500 -0.006538
v -9.500000 -21.828125 -0.006550
v -10.671875 14.500000 -0.006548
v -0.011482 -58.156250 -2.435557
v -6.406250 -58.125000 -1.176767
v -8.335938 -58.156250 -0.006555
v -0.011482 -58.156250 2.421865
v -6.406250 -58.125000 1.164054
v -8.335938 -58.156250 -0.006555
v 16.546875 -56.281250 2.521475
v 16.546875 -56.281250 -2.521493
v 0.000000 -62.250000 -4.640635
v 0.000000 -57.406250 -3.982431
v 0.000000 -62.250000 4.640615
v 0.000000 -57.406250 3.982413
v -16.546875 -56.281250 -2.521493
v -16.546875 -56.281250 2.521475
vt 0.500977 0.271973
vt 0.479492 0.363281
vt 0.636719 0.370605
vt 0.665039 0.268555
vt 0.498779 0.456543
vt 0.662598 0.475098
vt 0.766602 0.376953
vt 0.008156 0.281738
vt 0.172363 0.278320
vt 0.173096 0.257813
vt 0.008186 0.261230
vt 0.500000 0.477051
vt 0.664551 0.495605
vt 0.787598 0.377930
vt 0.667480 0.248047
vt 1.636719 0.370605
vt 1.479492 0.363281
vt 1.498047 0.456543
vt 1.662109 0.475098
vt 1.665039 0.268555
vt 1.500977 0.271973
vt 1.766602 0.376953
vt 1.170898 0.439453
vt 1.169922 0.418945
vt 1.005859 0.399902
vt 1.005859 0.420410
vt 1.666992 0.248047
vt 1.502930 0.251465
vt 1.787109 0.377930
vt 1.664063 0.495605
vt 0.149048 0.955170
vt 0.149292 0.909546
vt 0.166748 0.910034
vt 0.166504 0.955597
vt 0.131470 0.954712
vt 0.131836 0.909119
vt 0.114075 0.954285
vt 0.114380 0.908691
vt 0.236328 0.957367
vt 0.236572 0.911743
vt 0.253906 0.912231
vt 0.253662 0.957794
vt 0.218872 0.956940
vt 0.219116 0.911316
vt 0.201416 0.956482
vt 0.201660 0.910889
vt 0.183960 0.956055
vt 0.184204 0.910461
vt 0.566895 0.552002
vt 0.561523 0.518555
vt 0.516113 0.517822
vt 0.510254 0.550781
vt 1.515625 0.584229
vt 1.546875 0.605225
vt 1.529297 0.604980
vt 0.328613 0.972916
vt 0.291260 0.965363
vt 0.291504 0.906555
vt 0.329102 0.900879
vt 0.594727 0.606689
vt 0.604492 0.557861
vt 0.546875 0.605225
vt 1.594727 0.606445
vt 1.566406 0.552002
vt 1.604492 0.557861
vt 0.066833 0.962677
vt 0.067261 0.897888
vt 0.019608 0.971039
vt 0.020126 0.887146
vt 1.515625 0.517822
vt 1.561523 0.518555
vt 1.530273 0.497559
vt 1.547852 0.498047
vt 1.509766 0.550781
vt 0.547852 0.498047
vt 0.530273 0.497559
vt 0.515625 0.584229
vt 0.529785 0.604980
vt 0.511230 0.964661
vt 0.493652 0.964203
vt 0.493896 0.917908
vt 0.511719 0.918335
vt 0.528809 0.965118
vt 0.529297 0.918823
vt 0.546875 0.965546
vt 0.546875 0.919250
vt 0.422607 0.962433
vt 0.405029 0.961975
vt 0.405273 0.915649
vt 0.423096 0.916138
vt 0.440430 0.962860
vt 0.440674 0.916565
vt 0.458252 0.963318
vt 0.458496 0.916992
vt 0.475830 0.963776
vt 0.476318 0.917480
vt 0.717285 0.552002
vt 0.773438 0.550781
vt 0.768066 0.517822
vt 0.722168 0.518555
vt 1.768555 0.584229
vt 1.753906 0.604980
vt 1.736328 0.605225
vt 0.367188 0.908264
vt 0.366943 0.967438
vt 0.679688 0.557861
vt 0.689453 0.606689
vt 0.736816 0.605225
vt 1.716797 0.552002
vt 1.689453 0.606445
vt 1.679688 0.557861
vt 0.595215 0.910706
vt 0.594727 0.976471
vt 0.642578 0.987411
vt 0.643066 0.902222
vt 1.721680 0.518555
vt 1.736328 0.498047
vt 1.753906 0.497559
vt 1.767578 0.517822
vt 1.773438 0.550781
vt 0.736328 0.498047
vt 0.753906 0.497559
vt 0.768555 0.584229
vt 0.754395 0.604980
vt 0.833008 0.906189
vt 0.852539 0.906189
vt 0.852539 0.965210
vt 0.833008 0.965179
vt 0.812988 0.906128
vt 0.812988 0.965118
vt 0.793457 0.906128
vt 0.793457 0.965118
vt 0.733887 0.906067
vt 0.753418 0.906067
vt 0.753418 0.965088
vt 0.733887 0.965088
vt 0.722168 0.939270
vt 0.713867 0.906128
vt 0.892578 0.906311
vt 0.883789 0.939453
vt 0.872559 0.906250
vt 0.872559 0.965271
vt 0.486084 0.652344
vt 0.497803 0.621338
vt 0.497314 0.725342
vt 0.485840 0.694092
vt 0.551758 0.895569
vt 0.531738 0.890686
vt 0.517578 0.863647
vt 0.568848 0.876404
vt 0.773438 0.965088
vt 0.773438 0.906067
vt 0.345215 0.739990
vt 0.345215 0.694092
vt 0.391846 0.693848
vt 0.392090 0.741455
vt 0.344971 0.647705
vt 0.391846 0.646240
vt 0.344727 0.601563
vt 0.392090 0.598145
vt 0.392334 0.549316
vt 0.343018 0.555176
vt 0.344971 0.786255
vt 0.343506 0.832764
vt 0.392334 0.789551
vt 0.392822 0.838257
vt 0.438721 0.738525
vt 0.438232 0.693359
vt 0.485840 0.694092
vt 0.490967 0.727295
vt 0.298096 0.736572
vt 0.297852 0.694336
vt 0.438477 0.648193
vt 0.486084 0.652344
vt 0.297852 0.652100
vt 0.439453 0.602783
vt 0.491699 0.621094
vt 0.297363 0.611084
vt 0.441895 0.556885
vt 0.489258 0.582764
vt 0.295166 0.571777
vt 0.439697 0.783813
vt 0.442383 0.829590
vt 0.487061 0.767090
vt 0.490234 0.807373
vt 0.295654 0.816650
vt 0.297607 0.777588
vt 0.713867 0.965088
vt 0.892578 0.965302
vt 0.516602 0.609375
vt 0.516113 0.738037
vt 0.535645 0.622070
vt 0.535156 0.726074
vt 0.546875 0.654297
vt 0.546875 0.694092
vt 0.573730 0.801636
vt 0.521973 0.788696
vt 0.539551 0.769531
vt 0.559082 0.774536
vt 0.577148 0.840576
vt 0.513672 0.824707
vt 0.164673 0.348145
vt 0.322021 0.355957
vt 0.336670 0.275391
vt 0.170776 0.418945
vt 0.334717 0.437500
vt 0.502930 0.251465
vt 0.337891 0.254883
vt 0.170898 0.439453
vt 0.335449 0.458008
vt 1.321289 0.355957
vt 1.164063 0.348145
vt 1.333984 0.437500
vt 1.171875 0.278320
vt 1.335938 0.275391
vt 1.334961 0.458008
vt 1.500000 0.477051
vt 1.172852 0.257813
vt 1.337891 0.254883
vt 0.007389 0.340820
vt 0.006756 0.399902
vt 0.006226 0.420410
vt 1.006836 0.340820
vt 1.007813 0.281738
vt 1.007813 0.261230
vt 0.253662 0.957794
vt 0.253906 0.912231
vt 0.642090 0.607910
vt 0.642090 0.563965
vt 1.641602 0.607666
vt 1.641602 0.563721
vt 0.405273 0.915649
vt 0.405029 0.961975
vn 0.3856 -0.0132 -0.9226
vn 0.0000 -0.0114 -0.9999
vn 0.0000 0.0366 -0.9993
vn 0.3683 0.0835 -0.9260
vn -0.3856 -0.0132 -0.9226
vn -0.3684 0.0851 -0.9258
vn -0.0047 0.1866 -0.9824
vn 0.3611 -0.0151 -0.9324
vn 0.3747 -0.0130 -0.9270
vn 0.5052 -0.0153 -0.8629
vn 0.5183 -0.0166 -0.8551
vn -0.4790 -0.0149 -0.8777
vn -0.4433 0.0964 -0.8912
vn -0.0006 0.1995 -0.9799
vn 0.4451 0.0950 -0.8904
vn 0.0000 0.0366 0.9993
vn 0.0000 -0.0114 0.9999
vn 0.3859 -0.0132 0.9224
vn 0.3681 0.0835 0.9260
vn -0.3689 0.0848 0.9256
vn -0.3855 -0.0132 0.9226
vn -0.0048 0.1867 0.9824
vn 0.5053 -0.0153 0.8628
vn 0.3751 -0.0130 0.9269
vn 0.3611 -0.0151 0.9324
vn 0.5184 -0.0166 0.8550
vn -0.4432 0.0964 0.8912
vn -0.4788 -0.0149 0.8778
vn -0.0006 0.1996 0.9799
vn 0.4450 0.0950 0.8905
vn 0.8093 -0.5874 0.0000
vn 1.0000 0.0000 -0.0000
vn 0.3091 -0.9510 0.0000
vn 0.0000 -1.0000 0.0000
vn -0.8091 0.5877 -0.0000
vn -0.8090 0.5878 -0.0000
vn -0.9511 0.3090 0.0000
vn -0.9511 0.3089 -0.0000
vn -0.3091 0.9510 0.0000
vn -0.3090 0.9511 0.0000
vn 0.3090 0.9511 0.0000
vn 0.3091 0.9510 0.0000
vn 0.8090 0.5878 -0.0000
vn 0.8091 0.5877 -0.0000
vn 0.0465 0.0393 -0.9981
vn 0.0000 0.0000 -1.0000
vn 0.0000 -0.0000 1.0000
vn 0.0304 0.0220 0.9993
vn 0.0000 1.0000 0.0000
vn -0.0678 0.9977 0.0000
vn 0.0932 0.0914 -0.9914
vn 0.0891 0.1031 -0.9907
vn 0.0304 0.0221 -0.9993
vn 0.0932 0.0914 0.9914
vn 0.0465 0.0393 0.9981
vn 0.0891 0.1031 0.9907
vn -0.8093 -0.5874 0.0000
vn -1.0000 0.0000 -0.0000
vn -0.3091 -0.9510 -0.0000
vn 0.9511 0.3089 -0.0000
vn 0.9511 0.3090 0.0000
vn 0.8089 0.5879 -0.0000
vn -0.8089 0.5879 -0.0000
vn -0.0465 0.0393 -0.9981
vn -0.0304 0.0220 0.9993
vn 0.0678 0.9977 0.0000
vn -0.0891 0.1031 -0.9907
vn -0.0932 0.0914 -0.9914
vn -0.0304 0.0221 -0.9993
vn -0.0465 0.0393 0.9981
vn -0.0932 0.0914 0.9914
vn -0.0891 0.1031 0.9907
vn -0.8091 -0.5877 0.0000
vn -0.3090 -0.9511 -0.0000
vn 0.3090 -0.9511 0.0000
vn 0.3092 -0.9510 0.0000
vn 0.5877 0.8090 -0.0000
vn 0.5877 0.8091 -0.0000
vn -0.5877 0.8090 0.0000
vn -0.5879 0.8090 -0.0000
vn -0.0001 0.0001 1.0000
vn -0.0001 -0.0002 1.0000
vn 0.8091 -0.5877 0.0000
vn 0.8089 -0.5879 0.0000
vn -0.9984 0.0561 0.0000
vn -0.4993 0.0561 -0.8646
vn -0.5001 0.0001 -0.8660
vn -1.0000 0.0001 -0.0000
vn 0.4993 0.0561 -0.8646
vn 0.5001 0.0001 -0.8660
vn 0.9984 0.0561 -0.0000
vn 1.0000 0.0001 0.0000
vn 0.4999 -0.0000 0.8661
vn 0.4993 0.0560 0.8646
vn -0.4993 0.0561 0.8646
vn 0.4992 0.0561 0.8646
vn -0.5001 0.0001 0.8660
vn 0.5000 0.0000 0.8661
vn -0.9972 -0.0740 0.0052
vn -0.4956 -0.0711 -0.8657
vn -0.5492 -0.1167 -0.8275
vn -0.9938 -0.1047 -0.0379
vn -0.9962 0.0870 -0.0000
vn -0.4982 0.0869 -0.8627
vn 0.4957 -0.0713 -0.8656
vn 0.5497 -0.1160 -0.8273
vn 0.4982 0.0870 -0.8627
vn 0.9978 -0.0664 0.0001
vn 0.9913 -0.1217 -0.0494
vn 0.9962 0.0870 0.0000
vn 0.4956 -0.0711 0.8656
vn 0.5730 -0.1371 0.8080
vn 0.4983 0.0871 0.8626
vn -0.4996 -0.0787 0.8627
vn -0.5920 -0.1142 0.7978
vn -0.4982 0.0870 0.8627
vn -0.5877 0.8091 0.0000
vn 0.0000 -0.0001 1.0000
vn -0.0001 0.0000 1.0000
vn -0.0002 -0.0001 1.0000
vn 0.0000 -0.0107 -0.9999
vn 0.0000 -0.0110 -0.9999
vn 0.3820 -0.0133 -0.9241
vn -0.3752 -0.0130 -0.9269
vn -0.3817 -0.0133 -0.9242
vn 0.4790 -0.0149 -0.8777
vn 0.4922 -0.0153 -0.8704
vn -0.5051 -0.0153 -0.8629
vn -0.4919 -0.0153 -0.8705
vn 0.0000 -0.0110 0.9999
vn 0.0000 -0.0107 0.9999
vn 0.3817 -0.0133 0.9242
vn -0.3752 -0.0132 0.9268
vn -0.3817 -0.0133 0.9242
vn 0.4920 -0.0153 0.8705
vn 0.4788 -0.0149 0.8778
vn -0.5050 -0.0158 0.8630
vn -0.4917 -0.0153 0.8706
vn 0.0000 -0.0147 -0.9999
vn -0.3611 -0.0151 -0.9324
vn -0.5183 -0.0166 -0.8551
vn 0.0000 -0.0147 0.9999
vn -0.3613 -0.0147 0.9323
vn -0.5179 -0.0157 0.8553
vn -0.0000 0.1228 -0.9924
vn 0.0000 0.1350 -0.9908
vn 0.0000 0.1228 0.9924
vn -0.0000 0.1350 0.9908
usemtl sword_cute
s 1
f 1/1/1 2/2/2 3/3/3
f 3/3/3 4/4/4 1/1/1
f 3/3/3 2/2/2 5/5/5
f 5/5/5 6/6/6 3/3/3
f 3/3/3 7/7/7 4/4/4
f 3/3/3 6/6/6 7/7/7
f 8/8/8 9/9/9 10/10/10
f 10/10/10 11/11/11 8/8/8
f 6/6/6 5/5/5 12/12/12
f 7/7/7 6/6/6 13/13/13
f 12/12/12 13/13/13 6/6/6
f 4/4/4 7/7/7 14/14/14
f 13/13/13 14/14/14 7/7/7
f 14/14/14 15/15/15 4/4/4
f 16/16/16 17/17/17 18/18/18
f 18/18/18 19/19/19 16/16/16
f 16/16/16 20/20/20 21/21/21
f 21/21/21 17/17/17 16/16/16
f 16/16/16 22/22/22 20/20/20
f 16/16/16 19/19/19 22/22/22
f 23/23/23 24/24/24 25/25/25
f 25/25/25 26/26/26 23/23/23
f 27/27/27 20/20/20 22/22/22
f 28/28/28 21/21/21 20/20/20
f 20/20/20 27/27/27 28/28/28
f 29/29/29 22/22/22 19/19/19
f 22/22/22 29/29/29 27/27/27
f 19/19/19 30/30/30 29/29/29
f 31/31/31 32/32/31 33/33/32
f 33/33/32 34/34/32 31/31/31
f 32/32/31 31/31/31 35/35/33
f 35/35/33 36/36/33 32/32/31
f 36/36/33 35/35/33 37/37/34
f 37/37/34 38/38/34 36/36/33
f 39/39/35 40/40/36 41/41/37
f 41/41/37 42/42/38 39/39/35
f 40/40/36 39/39/35 43/43/39
f 43/43/39 44/44/40 40/40/36
f 44/44/40 43/43/39 45/45/41
f 45/45/41 46/46/42 44/44/40
f 46/46/42 45/45/41 47/47/43
f 47/47/43 48/48/44 46/46/42
f 34/34/32 33/33/32 48/48/44
f 48/48/44 47/47/43 34/34/32
f 49/49/45 50/50/46 51/51/46
f 51/51/46 52/52/46 49/49/45
f 53/53/47 54/54/48 55/55/47
f 56/56/49 57/57/50 58/58/50
f 58/58/50 59/59/49 56/56/49
f 60/60/51 61/61/52 49/49/45
f 62/62/53 49/49/45 52/52/46
f 49/49/45 62/62/53 60/60/51
f 63/63/54 54/54/48 64/64/55
f 64/64/55 65/65/56 63/63/54
f 38/38/34 37/37/34 66/66/34
f 66/66/34 67/67/34 38/38/34
f 67/67/34 66/66/34 68/68/34
f 68/68/34 69/69/34 67/67/34
f 70/70/47 71/71/47 64/64/55
f 71/71/47 70/70/47 72/72/47
f 72/72/47 73/73/47 71/71/47
f 54/54/48 53/53/47 74/74/47
f 64/64/55 74/74/47 70/70/47
f 74/74/47 64/64/55 54/54/48
f 51/51/46 50/50/46 75/75/46
f 75/75/46 76/76/46 51/51/46
f 52/52/46 77/77/46 62/62/53
f 77/77/46 78/78/46 62/62/53
f 79/79/57 80/80/58 81/81/58
f 81/81/58 82/82/57 79/79/57
f 83/83/59 79/79/57 82/82/57
f 82/82/57 84/84/59 83/83/59
f 85/85/34 83/83/59 84/84/59
f 84/84/59 86/86/34 85/85/34
f 87/87/44 88/88/60 89/89/61
f 89/89/61 90/90/62 87/87/44
f 91/91/41 87/87/44 90/90/62
f 90/90/62 92/92/41 91/91/41
f 93/93/40 91/91/41 92/92/41
f 92/92/41 94/94/40 93/93/40
f 95/95/63 93/93/40 94/94/40
f 96/96/35 81/81/58 80/80/58
f 80/80/58 95/95/63 96/96/35
f 94/94/40 96/96/35 95/95/63
f 97/97/64 98/98/46 99/99/46
f 99/99/46 100/100/46 97/97/64
f 101/101/47 102/102/47 103/103/65
f 56/56/49 59/59/49 104/104/66
f 104/104/66 105/105/66 56/56/49
f 97/97/64 106/106/67 107/107/68
f 107/107/68 108/108/69 97/97/64
f 98/98/46 97/97/64 108/108/69
f 109/109/70 103/103/65 110/110/71
f 110/110/71 111/111/72 109/109/70
f 112/112/34 113/113/34 85/85/34
f 85/85/34 86/86/34 112/112/34
f 114/114/34 113/113/34 112/112/34
f 112/112/34 115/115/34 114/114/34
f 116/116/47 117/117/47 118/118/47
f 118/118/47 119/119/47 116/116/47
f 109/109/70 116/116/47 119/119/47
f 120/120/47 101/101/47 103/103/65
f 119/119/47 120/120/47 109/109/70
f 103/103/65 109/109/70 120/120/47
f 121/121/46 100/100/46 99/99/46
f 99/99/46 122/122/46 121/121/46
f 108/108/69 123/123/46 98/98/46
f 123/123/46 108/108/69 124/124/46
f 125/125/73 126/126/58 127/127/58
f 127/127/58 128/128/73 125/125/73
f 129/129/74 125/125/73 128/128/73
f 128/128/73 130/130/59 129/129/74
f 131/131/75 129/129/74 130/130/59
f 130/130/59 132/132/76 131/131/75
f 133/133/44 134/134/32 135/135/32
f 135/135/32 136/136/44 133/133/44
f 137/137/77 133/133/44 136/136/44
f 138/138/78 133/133/44 137/137/77
f 139/139/79 140/140/80 141/141/35
f 142/142/35 127/127/58 126/126/58
f 126/126/58 141/141/35 142/142/35
f 143/143/46 144/144/46 145/145/46
f 145/145/46 146/146/46 143/143/46
f 147/147/47 148/148/47 149/149/81
f 149/149/81 150/150/82 147/147/47
f 131/131/75 132/132/76 151/151/83
f 152/152/84 151/151/83 135/135/32
f 135/135/32 134/134/32 152/152/84
f 151/151/83 152/152/84 131/131/75
f 153/153/85 154/154/86 155/155/87
f 155/155/87 156/156/88 153/153/85
f 154/154/86 157/157/89 158/158/90
f 158/158/90 155/155/87 154/154/86
f 157/157/89 159/159/91 160/160/92
f 160/160/92 158/158/90 157/157/89
f 161/161/93 160/160/92 159/159/91
f 159/159/91 162/162/94 161/161/93
f 163/163/95 153/153/85 156/156/88
f 164/164/96 163/163/95 165/165/97
f 156/156/88 165/165/97 163/163/95
f 165/165/97 166/166/98 164/164/96
f 165/165/97 156/156/88 167/167/99
f 156/156/88 155/155/87 168/168/100
f 168/168/100 167/167/99 156/156/88
f 167/167/99 168/168/100 169/169/101
f 169/169/101 170/170/102 167/167/99
f 154/154/86 153/153/85 171/171/103
f 157/157/89 154/154/86 172/172/104
f 171/171/103 172/172/104 154/154/86
f 173/173/105 168/168/100 155/155/87
f 155/155/87 158/158/90 173/173/105
f 174/174/106 169/169/101 168/168/100
f 168/168/100 173/173/105 174/174/106
f 159/159/91 157/157/89 175/175/107
f 172/172/104 175/175/107 157/157/89
f 176/176/108 173/173/105 158/158/90
f 158/158/90 160/160/92 176/176/108
f 177/177/109 174/174/106 173/173/105
f 173/173/105 176/176/108 177/177/109
f 162/162/94 159/159/91 178/178/110
f 175/175/107 178/178/110 159/159/91
f 160/160/92 161/161/93 179/179/111
f 179/179/111 176/176/108 160/160/92
f 176/176/108 179/179/111 180/180/112
f 180/180/112 177/177/109 176/176/108
f 178/178/110 181/181/113 162/162/94
f 182/182/114 167/167/99 170/170/102
f 166/166/98 165/165/97 182/182/114
f 167/167/99 182/182/114 165/165/97
f 182/182/114 183/183/111 166/166/98
f 170/170/102 184/184/115 182/182/114
f 183/183/111 182/182/114 184/184/115
f 184/184/115 185/185/112 183/183/111
f 163/163/95 164/164/96 186/186/113
f 187/187/116 171/171/103 153/153/85
f 186/186/113 187/187/116 163/163/95
f 153/153/85 163/163/95 187/187/116
f 136/136/44 188/188/78 137/137/77
f 189/189/117 142/142/35 141/141/35
f 141/141/35 140/140/80 189/189/117
f 145/145/46 144/144/46 190/190/46
f 190/190/46 191/191/46 145/145/46
f 191/191/46 190/190/46 192/192/46
f 192/192/46 193/193/46 191/191/46
f 193/193/46 192/192/46 194/194/46
f 194/194/46 195/195/46 193/193/46
f 196/196/118 197/197/119 198/198/120
f 198/198/120 199/199/81 196/196/118
f 197/197/119 196/196/118 200/200/119
f 150/150/82 149/149/81 201/201/119
f 201/201/119 200/200/119 150/150/82
f 200/200/119 201/201/119 197/197/119
f 202/202/121 9/9/9 8/8/8
f 9/9/9 202/202/121 203/203/122
f 10/10/10 9/9/9 204/204/123
f 2/2/2 1/1/1 204/204/123
f 203/203/122 204/204/123 9/9/9
f 204/204/123 203/203/122 2/2/2
f 203/203/122 202/202/121 205/205/124
f 206/206/125 5/5/5 2/2/2
f 2/2/2 203/203/122 206/206/125
f 205/205/124 206/206/125 203/203/122
f 4/4/4 15/15/15 207/207/126
f 207/207/126 1/1/1 4/4/4
f 208/208/127 204/204/123 1/1/1
f 204/204/123 208/208/127 10/10/10
f 1/1/1 207/207/126 208/208/127
f 206/206/125 205/205/124 209/209/128
f 210/210/129 12/12/12 5/5/5
f 5/5/5 206/206/125 210/210/129
f 209/209/128 210/210/129 206/206/125
f 211/211/130 212/212/131 24/24/24
f 25/25/25 24/24/24 212/212/131
f 17/17/17 211/211/130 213/213/132
f 213/213/132 24/24/24 23/23/23
f 213/213/132 18/18/18 17/17/17
f 24/24/24 213/213/132 211/211/130
f 214/214/133 212/212/131 211/211/130
f 211/211/130 215/215/134 214/214/133
f 215/215/134 211/211/130 17/17/17
f 17/17/17 21/21/21 215/215/134
f 23/23/23 216/216/135 213/213/132
f 18/18/18 213/213/132 216/216/135
f 19/19/19 18/18/18 217/217/136
f 217/217/136 30/30/30 19/19/19
f 216/216/135 217/217/136 18/18/18
f 218/218/137 214/214/133 215/215/134
f 215/215/134 219/219/138 218/218/137
f 219/219/138 215/215/134 21/21/21
f 21/21/21 28/28/28 219/219/138
f 8/8/8 220/220/139 202/202/121
f 209/209/128 205/205/124 221/221/140
f 202/202/121 220/220/139 221/221/140
f 221/221/140 205/205/124 202/202/121
f 221/221/140 222/222/141 209/209/128
f 212/212/131 223/223/142 25/25/25
f 224/224/143 223/223/142 212/212/131
f 212/212/131 214/214/133 224/224/143
f 214/214/133 218/218/137 225/225/144
f 225/225/144 224/224/143 214/214/133
f 58/58/50 57/57/50 226/226/50
f 226/226/50 227/227/50 58/58/50
f 61/61/52 60/60/51 228/228/145
f 228/228/145 107/107/68 106/106/67
f 228/228/145 229/229/146 61/61/52
f 106/106/67 229/229/146 228/228/145
f 230/230/147 63/63/54 65/65/56
f 65/65/56 231/231/148 230/230/147
f 230/230/147 231/231/148 111/111/72
f 111/111/72 110/110/71 230/230/147
f 105/105/66 104/104/66 232/232/66
f 232/232/66 233/233/66 105/105/66
